<svg xmlns="http://www.w3.org/2000/svg" width="805" height="600"><rect width="805" height="600" x="0" y="0" fill="#FFFFFF" id="backgorund"/><g id="viz"><clipPath id="serieClipPath"><rect x="-50" y="-10" width="805" height="600"/></clipPath><g transform="translate(0,0)"><g transform="translate(50,10)" clip-path="url(#serieClipPath)"><g id="axis"><g transform="translate(0,316.6666666666667)" fill="none" font-size="10" font-family="sans-serif" text-anchor="middle"><path class="domain" stroke="currentColor" d="M0,6V0H740V6"/><g class="tick" opacity="1" transform="translate(0,0)"><line stroke="currentColor" y2="6"/><text fill="currentColor" y="9" dy="0.71em">Tue 11</text></g><g class="tick" opacity="1" transform="translate(47.74193548387097,0)"><line stroke="currentColor" y2="6"/><text fill="currentColor" y="9" dy="0.71em">Thu 13</text></g><g class="tick" opacity="1" transform="translate(95.48387096774194,0)"><line stroke="currentColor" y2="6"/><text fill="currentColor" y="9" dy="0.71em">Sat 15</text></g><g class="tick" opacity="1" transform="translate(143.2258064516129,0)"><line stroke="currentColor" y2="6"/><text fill="currentColor" y="9" dy="0.71em">Mon 17</text></g><g class="tick" opacity="1" transform="translate(190.96774193548387,0)"><line stroke="currentColor" y2="6"/><text fill="currentColor" y="9" dy="0.71em">Wed 19</text></g><g class="tick" opacity="1" transform="translate(238.70967741935482,0)"><line stroke="currentColor" y2="6"/><text fill="currentColor" y="9" dy="0.71em">Fri 21</text></g><g class="tick" opacity="1" transform="translate(286.4516129032258,0)"><line stroke="currentColor" y2="6"/><text fill="currentColor" y="9" dy="0.71em">Oct 23</text></g><g class="tick" opacity="1" transform="translate(334.19354838709677,0)"><line stroke="currentColor" y2="6"/><text fill="currentColor" y="9" dy="0.71em">Tue 25</text></g><g class="tick" opacity="1" transform="translate(381.93548387096774,0)"><line stroke="currentColor" y2="6"/><text fill="currentColor" y="9" dy="0.71em">Thu 27</text></g><g class="tick" opacity="1" transform="translate(429.6774193548387,0)"><line stroke="currentColor" y2="6"/><text fill="currentColor" y="9" dy="0.71em">Sat 29</text></g><g class="tick" opacity="1" transform="translate(477.41935483870964,0)"><line stroke="currentColor" y2="6"/><text fill="currentColor" y="9" dy="0.71em">Mon 31</text></g><g class="tick" opacity="1" transform="translate(501.2903225806451,0)"><line stroke="currentColor" y2="6"/><text fill="currentColor" y="9" dy="0.71em">November</text></g><g class="tick" opacity="1" transform="translate(549.0322580645161,0)"><line stroke="currentColor" y2="6"/><text fill="currentColor" y="9" dy="0.71em">Thu 03</text></g><g class="tick" opacity="1" transform="translate(596.7741935483871,0)"><line stroke="currentColor" y2="6"/><text fill="currentColor" y="9" dy="0.71em">Sat 05</text></g><g class="tick" opacity="1" transform="translate(644.516129032258,0)"><line stroke="currentColor" y2="6"/><text fill="currentColor" y="9" dy="0.71em">Mon 07</text></g><g class="tick" opacity="1" transform="translate(692.258064516129,0)"><line stroke="currentColor" y2="6"/><text fill="currentColor" y="9" dy="0.71em">Wed 09</text></g><g class="tick" opacity="1" transform="translate(740,0)"><line stroke="currentColor" y2="6"/><text fill="currentColor" y="9" dy="0.71em">Fri 11</text></g><text x="740" dy="-5" text-anchor="end" style="font-family: Arial, sans-serif; font-size: 12px; fill: rgb(123, 123, 123); font-weight: bold;">日期</text></g><g transform="translate(0,0)" fill="none" font-size="10" font-family="sans-serif" text-anchor="end"><path class="domain" stroke="currentColor" d="M0,570V0"/><g class="tick" opacity="1" transform="translate(0,570)"><line stroke="currentColor" x2="-6"/><text fill="currentColor" x="-9" dy="0.32em">−2.0</text></g><g class="tick" opacity="1" transform="translate(0,506.66666666666663)"><line stroke="currentColor" x2="-6"/><text fill="currentColor" x="-9" dy="0.32em">−1.5</text></g><g class="tick" opacity="1" transform="translate(0,443.3333333333333)"><line stroke="currentColor" x2="-6"/><text fill="currentColor" x="-9" dy="0.32em">−1.0</text></g><g class="tick" opacity="1" transform="translate(0,380.00000000000006)"><line stroke="currentColor" x2="-6"/><text fill="currentColor" x="-9" dy="0.32em">−0.5</text></g><g class="tick" opacity="1" transform="translate(0,316.6666666666667)"><line stroke="currentColor" x2="-6"/><text fill="currentColor" x="-9" dy="0.32em">0.0</text></g><g class="tick" opacity="1" transform="translate(0,253.33333333333331)"><line stroke="currentColor" x2="-6"/><text fill="currentColor" x="-9" dy="0.32em">0.5</text></g><g class="tick" opacity="1" transform="translate(0,190.00000000000003)"><line stroke="currentColor" x2="-6"/><text fill="currentColor" x="-9" dy="0.32em">1.0</text></g><g class="tick" opacity="1" transform="translate(0,126.66666666666666)"><line stroke="currentColor" x2="-6"/><text fill="currentColor" x="-9" dy="0.32em">1.5</text></g><g class="tick" opacity="1" transform="translate(0,63.333333333333364)"><line stroke="currentColor" x2="-6"/><text fill="currentColor" x="-9" dy="0.32em">2.0</text></g><g class="tick" opacity="1" transform="translate(0,0)"><line stroke="currentColor" x2="-6"/><text fill="currentColor" x="-9" dy="0.32em">2.5</text></g><text x="4" text-anchor="start" dominant-baseline="hanging" style="font-family: Arial, sans-serif; font-size: 12px; fill: rgb(123, 123, 123); font-weight: bold;">漲跌</text></g></g><g id="viz"><g><path d="M23.870967741935484,443.3333333333333C35.806451612903224,443.3333333333333,35.806451612903224,253.33333333333331,47.74193548387097,253.33333333333331C59.677419354838705,253.33333333333331,59.677419354838705,126.66666666666666,71.61290322580645,126.66666666666666C107.41935483870967,126.66666666666666,107.41935483870967,316.6666666666667,143.2258064516129,316.6666666666667C155.16129032258064,316.6666666666667,155.16129032258064,506.66666666666663,167.09677419354838,506.66666666666663C179.03225806451613,506.66666666666663,179.03225806451613,380.00000000000006,190.96774193548387,380.00000000000006C202.90322580645162,380.00000000000006,202.90322580645162,380.00000000000006,214.83870967741936,380.00000000000006C226.77419354838707,380.00000000000006,226.77419354838707,190.00000000000003,238.70967741935482,190.00000000000003C274.51612903225805,190.00000000000003,274.51612903225805,380.00000000000006,310.3225806451613,380.00000000000006C322.258064516129,380.00000000000006,322.258064516129,253.33333333333331,334.19354838709677,253.33333333333331C346.1290322580645,253.33333333333331,346.1290322580645,253.33333333333331,358.06451612903226,253.33333333333331C370,253.33333333333331,370,316.6666666666667,381.93548387096774,316.6666666666667C393.8709677419355,316.6666666666667,393.8709677419355,316.6666666666667,405.8064516129032,316.6666666666667C441.6129032258064,316.6666666666667,441.6129032258064,506.66666666666663,477.41935483870964,506.66666666666663C489.3548387096774,506.66666666666663,489.3548387096774,443.3333333333333,501.2903225806451,443.3333333333333C513.2258064516129,443.3333333333333,513.2258064516129,253.33333333333331,525.1612903225807,253.33333333333331C537.0967741935484,253.33333333333331,537.0967741935484,443.3333333333333,549.0322580645161,443.3333333333333C560.9677419354839,443.3333333333333,560.9677419354839,380.00000000000006,572.9032258064516,380.00000000000006C608.7096774193549,380.00000000000006,608.7096774193549,380.00000000000006,644.516129032258,380.00000000000006C656.4516129032259,380.00000000000006,656.4516129032259,316.6666666666667,668.3870967741935,316.6666666666667C680.3225806451612,316.6666666666667,680.3225806451612,0,692.258064516129,0C704.1935483870968,0,704.1935483870968,570,716.1290322580645,570C728.0645161290322,570,728.0645161290322,380.00000000000006,740,380.00000000000006" stroke="#1f77b4" fill="none"/><text font-family="sans-serif" font-size="10" class="labels" x="692.258064516129" y="0" dx="0" dy="-4" text-anchor="middle"/></g></g></g><text y="4" x="4" style="font-family: Arial, sans-serif; font-size: 12px; fill: black; font-weight: bold; dominant-baseline: hanging;"/></g><g id="grid"><rect x="0" y="0" width="805" height="600" fill="none" stroke="#ccc"/></g></g></svg>